<svg width="19" height="14" viewBox="0 0 19 14" fill="none" xmlns="http://www.w3.org/2000/svg">
<path d="M8.60581 4.25249L2.91056 9.04836C2.23844 9.61449 2.78469 10.5 3.80475 10.5H15.1952C15.4235 10.5001 15.647 10.4518 15.839 10.3607C16.031 10.2697 16.1832 10.1398 16.2776 9.98663C16.3719 9.83346 16.4044 9.66349 16.371 9.49708C16.3376 9.33068 16.2399 9.17488 16.0894 9.04836L10.3942 4.25336C10.2827 4.15938 10.1453 4.08406 9.99104 4.03244C9.83681 3.98083 9.66938 3.95413 9.5 3.95413C9.33061 3.95413 9.16318 3.98083 9.00896 4.03244C8.85473 4.08406 8.71727 4.15938 8.60581 4.25336V4.25249Z" fill="#1DA1F2"/>
</svg>
