<svg width="37" height="37" viewBox="0 0 37 37" fill="none" xmlns="http://www.w3.org/2000/svg">
<path d="M9.25 12.025C9.25 11.7797 9.34746 11.5444 9.52093 11.371C9.6944 11.1975 9.92967 11.1 10.175 11.1H23.125C23.3703 11.1 23.6056 11.1975 23.7791 11.371C23.9525 11.5444 24.05 11.7797 24.05 12.025C24.05 12.2704 23.9525 12.5056 23.7791 12.6791C23.6056 12.8526 23.3703 12.95 23.125 12.95H10.175C9.92967 12.95 9.6944 12.8526 9.52093 12.6791C9.34746 12.5056 9.25 12.2704 9.25 12.025Z" fill="white"/>
<path d="M19.425 16.65C19.1797 16.65 18.9444 16.7475 18.7709 16.9209C18.5975 17.0944 18.5 17.3297 18.5 17.575C18.5 17.8203 18.5975 18.0556 18.7709 18.2291C18.9444 18.4026 19.1797 18.5 19.425 18.5H23.125C23.3703 18.5 23.6056 18.4026 23.7791 18.2291C23.9525 18.0556 24.05 17.8203 24.05 17.575C24.05 17.3297 23.9525 17.0944 23.7791 16.9209C23.6056 16.7475 23.3703 16.65 23.125 16.65H19.425Z" fill="white"/>
<path d="M18.5 23.125C18.5 22.8797 18.5975 22.6444 18.7709 22.4709C18.9444 22.2975 19.1797 22.2 19.425 22.2H23.125C23.3703 22.2 23.6056 22.2975 23.7791 22.4709C23.9525 22.6444 24.05 22.8797 24.05 23.125C24.05 23.3703 23.9525 23.6056 23.7791 23.7791C23.6056 23.9526 23.3703 24.05 23.125 24.05H19.425C19.1797 24.05 18.9444 23.9526 18.7709 23.7791C18.5975 23.6056 18.5 23.3703 18.5 23.125Z" fill="white"/>
<path d="M10.175 16.65C9.92967 16.65 9.6944 16.7475 9.52093 16.921C9.34746 17.0944 9.25 17.3297 9.25 17.575V23.125C9.25 23.3704 9.34746 23.6056 9.52093 23.7791C9.6944 23.9526 9.92967 24.05 10.175 24.05H15.725C15.9703 24.05 16.2056 23.9526 16.3791 23.7791C16.5525 23.6056 16.65 23.3704 16.65 23.125V17.575C16.65 17.3297 16.5525 17.0944 16.3791 16.921C16.2056 16.7475 15.9703 16.65 15.725 16.65H10.175ZM11.1 22.2V18.5H14.8V22.2H11.1Z" fill="white"/>
<path d="M3.7 9.25002C3.7 8.26872 4.08982 7.32761 4.7837 6.63372C5.47759 5.93984 6.4187 5.55002 7.4 5.55002H25.9C26.8813 5.55002 27.8224 5.93984 28.5163 6.63372C29.2102 7.32761 29.6 8.26872 29.6 9.25002V11.1C30.5813 11.1 31.5224 11.4898 32.2163 12.1837C32.9102 12.8776 33.3 13.8187 33.3 14.8V24.975C33.3 26.2016 32.8127 27.378 31.9454 28.2454C31.078 29.1127 29.9016 29.6 28.675 29.6H8.325C7.09837 29.6 5.92198 29.1127 5.05463 28.2454C4.18727 27.378 3.7 26.2016 3.7 24.975V9.25002ZM27.75 9.25002C27.75 8.75937 27.5551 8.28881 27.2081 7.94187C26.8612 7.59493 26.3906 7.40002 25.9 7.40002H7.4C6.90935 7.40002 6.43879 7.59493 6.09185 7.94187C5.74491 8.28881 5.55 8.75937 5.55 9.25002V24.975C5.55 25.711 5.84236 26.4168 6.36278 26.9372C6.88319 27.4577 7.58902 27.75 8.325 27.75H28.675C29.411 27.75 30.1168 27.4577 30.6372 26.9372C31.1576 26.4168 31.45 25.711 31.45 24.975V14.8C31.45 14.3094 31.2551 13.8388 30.9081 13.4919C30.5612 13.1449 30.0906 12.95 29.6 12.95V24.975C29.6 25.2203 29.5025 25.4556 29.3291 25.6291C29.1556 25.8026 28.9203 25.9 28.675 25.9C28.4297 25.9 28.1944 25.8026 28.0209 25.6291C27.8475 25.4556 27.75 25.2203 27.75 24.975V9.25002Z" fill="white"/>
</svg>
