<svg width="37" height="37" viewBox="0 0 37 37" fill="none" xmlns="http://www.w3.org/2000/svg">
<path d="M15.725 5.55002C17.6589 5.54969 19.5528 6.10047 21.1849 7.13785C22.8169 8.17522 24.1196 9.65623 24.9402 11.4073C25.7608 13.1585 26.0654 15.1072 25.8183 17.0252C25.5712 18.9432 24.7826 20.7511 23.545 22.237L31.1799 29.8701C31.3438 30.0333 31.4406 30.2519 31.4513 30.4829C31.462 30.7139 31.3858 30.9405 31.2377 31.1181C31.0896 31.2957 30.8803 31.4114 30.6511 31.4423C30.422 31.4733 30.1895 31.4173 29.9996 31.2854L29.8701 31.1799L22.237 23.545C20.9812 24.5904 19.4921 25.318 17.8957 25.6662C16.2993 26.0145 14.6424 25.9731 13.0654 25.5457C11.4883 25.1183 10.0373 24.3173 8.83526 23.2106C7.63318 22.1038 6.71531 20.7239 6.1593 19.1874C5.60328 17.6509 5.42548 16.0032 5.64091 14.3835C5.85635 12.7637 6.4587 11.2197 7.39701 9.88203C8.33532 8.54433 9.58199 7.45227 11.0316 6.69824C12.4812 5.9442 14.091 5.55035 15.725 5.55002ZM15.725 7.40002C13.5171 7.40002 11.3996 8.27711 9.83834 9.83835C8.27709 11.3996 7.4 13.5171 7.4 15.725C7.4 17.9329 8.27709 20.0504 9.83834 21.6117C11.3996 23.1729 13.5171 24.05 15.725 24.05C17.9329 24.05 20.0504 23.1729 21.6117 21.6117C23.1729 20.0504 24.05 17.9329 24.05 15.725C24.05 13.5171 23.1729 11.3996 21.6117 9.83835C20.0504 8.27711 17.9329 7.40002 15.725 7.40002Z" fill="white"/>
</svg>
