<svg width="37" height="37" viewBox="0 0 37 37" fill="none" xmlns="http://www.w3.org/2000/svg">
<path d="M16.6463 4.41778C17.1557 3.96016 17.8162 3.707 18.5009 3.707C19.1857 3.707 19.8462 3.96016 20.3556 4.41778L30.5306 13.5605C30.8199 13.8206 31.0512 14.1387 31.2096 14.4941C31.368 14.8495 31.4499 15.2342 31.45 15.6232V28.675C31.45 29.411 31.1577 30.1168 30.6372 30.6372C30.1168 31.1576 29.411 31.45 28.675 31.45H24.05C23.314 31.45 22.6082 31.1576 22.0878 30.6372C21.5674 30.1168 21.275 29.411 21.275 28.675V22.2C21.275 21.9547 21.1776 21.7194 21.0041 21.5459C20.8306 21.3724 20.5953 21.275 20.35 21.275H16.65C16.4047 21.275 16.1694 21.3724 15.9959 21.5459C15.8225 21.7194 15.725 21.9547 15.725 22.2V28.675C15.725 29.411 15.4327 30.1168 14.9122 30.6372C14.3918 31.1576 13.686 31.45 12.95 31.45H8.32502C7.58904 31.45 6.88321 31.1576 6.3628 30.6372C5.84238 30.1168 5.55002 29.411 5.55002 28.675V15.6232C5.55002 14.837 5.88302 14.0877 6.47132 13.5605L16.6463 4.41778ZM19.1179 5.79418C18.9482 5.64181 18.7281 5.55753 18.5 5.55753C18.2719 5.55753 18.0519 5.64181 17.8821 5.79418L7.70712 14.9369C7.61073 15.0234 7.53358 15.1292 7.48068 15.2474C7.42778 15.3657 7.4003 15.4937 7.40002 15.6232V28.675C7.40002 28.9203 7.49747 29.1556 7.67094 29.3291C7.84442 29.5025 8.07969 29.6 8.32502 29.6H12.95C13.1953 29.6 13.4306 29.5025 13.6041 29.3291C13.7776 29.1556 13.875 28.9203 13.875 28.675V22.2C13.875 21.464 14.1674 20.7582 14.6878 20.2378C15.2082 19.7174 15.914 19.425 16.65 19.425H20.35C21.086 19.425 21.7918 19.7174 22.3122 20.2378C22.8327 20.7582 23.125 21.464 23.125 22.2V28.675C23.125 28.9203 23.2225 29.1556 23.3959 29.3291C23.5694 29.5025 23.8047 29.6 24.05 29.6H28.675C28.9203 29.6 29.1556 29.5025 29.3291 29.3291C29.5026 29.1556 29.6 28.9203 29.6 28.675V15.6232C29.5997 15.4937 29.5723 15.3657 29.5194 15.2474C29.4665 15.1292 29.3893 15.0234 29.2929 14.9369L19.1179 5.79418Z" fill="white"/>
</svg>
